<svg width="24" height="24" viewBox="0 0 24 24" fill="none" xmlns="http://www.w3.org/2000/svg">
<path d="M6.82796 1.90735e-06C7.09316 5.91278e-05 7.34747 0.105452 7.53497 0.293001L15.707 8.465C16.6443 9.40264 17.1709 10.6742 17.1709 12C17.1709 13.3258 16.6443 14.5974 15.707 15.535L7.53497 23.707C7.34636 23.8892 7.09376 23.99 6.83156 23.9877C6.56937 23.9854 6.31855 23.8802 6.13315 23.6948C5.94774 23.5094 5.84257 23.2586 5.84029 22.9964C5.83801 22.7342 5.93881 22.4816 6.12097 22.293L14.293 14.121C14.8554 13.5584 15.1713 12.7955 15.1713 12C15.1713 11.2045 14.8554 10.4416 14.293 9.879L6.12097 1.707C5.98116 1.56715 5.88595 1.38899 5.84738 1.19503C5.80881 1.00108 5.82862 0.800047 5.90429 0.617348C5.97996 0.434649 6.1081 0.278484 6.27251 0.1686C6.43692 0.0587158 6.63021 4.3869e-05 6.82796 1.90735e-06Z" fill="white"/>
</svg>
