<svg width="24" height="24" viewBox="0 0 24 24" fill="none" xmlns="http://www.w3.org/2000/svg">
<path d="M17.172 24C16.9068 23.9999 16.6525 23.8946 16.465 23.707L8.29303 15.535C7.35568 14.5974 6.8291 13.3258 6.8291 12C6.8291 10.6742 7.35568 9.40264 8.29303 8.465L16.465 0.293003C16.6536 0.110845 16.9062 0.0100503 17.1684 0.0123288C17.4306 0.0146072 17.6814 0.119776 17.8669 0.305184C18.0523 0.490592 18.1574 0.741405 18.1597 1.0036C18.162 1.2658 18.0612 1.5184 17.879 1.707L9.70703 9.879C9.14462 10.4416 8.82867 11.2045 8.82867 12C8.82867 12.7955 9.14462 13.5584 9.70703 14.121L17.879 22.293C18.0188 22.4329 18.1141 22.611 18.1526 22.805C18.1912 22.9989 18.1714 23.2 18.0957 23.3827C18.02 23.5654 17.8919 23.7215 17.7275 23.8314C17.5631 23.9413 17.3698 24 17.172 24Z" fill="white"/>
</svg>
