<svg width="149" height="67" viewBox="0 0 149 67" fill="none" xmlns="http://www.w3.org/2000/svg">
<path d="M23.6906 66.5952C19.3406 65.9574 15.0765 64.4313 11.5396 61.8006C8.37292 59.4463 5.77477 56.4079 3.87083 52.9548C-0.214755 45.5495 -0.93535 36.8941 1.09421 28.7523C2.1784 24.4117 3.99645 20.2419 6.29707 16.4076C8.54483 12.6457 11.2553 9.01529 14.4682 6.00972C17.7804 2.91861 21.7007 0.72196 26.249 0.16293C30.8966 -0.409231 35.7294 0.603578 40.152 1.98471C42.8094 2.8134 45.4078 3.87226 47.8803 5.15473C48.6075 5.36519 49.3214 5.60196 50.022 5.90447C56.977 8.9298 62.6031 14.9081 65.5646 21.814C68.6521 29.002 68.8304 37.0851 65.9482 44.3786C63.0527 51.7055 57.6647 57.881 50.8353 61.8402C46.915 64.1158 42.5186 65.5168 38.0498 66.2467C33.3097 67.0228 28.4507 67.2988 23.6906 66.5952Z" fill="#D1D1BD"/>
<path d="M116.361 36.862C114.829 36.6428 113.318 36.118 112.074 35.2141C110.954 34.4036 110.041 33.3604 109.367 32.1776C107.924 29.6325 107.67 26.6625 108.385 23.8715C108.77 22.3831 109.409 20.9544 110.219 19.632C111.016 18.3429 111.971 17.0936 113.105 16.0637C114.273 15.0005 115.66 14.2496 117.261 14.0569C118.903 13.8576 120.607 14.2098 122.166 14.6815C123.108 14.9673 124.021 15.3261 124.894 15.7713C125.148 15.8444 125.402 15.9241 125.649 16.0304C128.102 17.0671 130.088 19.1203 131.139 21.4927C132.231 23.9578 132.293 26.7353 131.276 29.2338C130.252 31.7455 128.349 33.8653 125.938 35.2276C124.55 36.0118 122.998 36.49 121.424 36.7426C119.755 37.0084 118.044 37.1015 116.361 36.862Z" fill="#FFC476"/>
<path d="M37.6717 34.2238C37.9684 34.096 38.2094 34.0046 38.4692 33.9136C39.8043 33.4755 41.1399 33.0008 42.4937 32.5627C42.7161 32.4713 42.9945 32.4713 43.2911 32.4713C43.6803 32.5082 43.9587 32.7451 43.9956 33.0922C44.0329 33.457 43.8288 33.7128 43.5135 33.8771C43.328 33.9316 43.1056 34.0046 42.9202 34.0595C40.9727 34.5341 39.1367 35.2276 37.3751 36.1588C37.1154 36.2862 36.8743 36.469 36.7075 36.7244C35.1127 39.2253 33.0726 41.3426 30.7915 43.2226C28.1765 45.4128 25.4132 47.4571 22.7056 49.5564C22.5202 49.7208 22.3347 49.8667 22.1121 49.9396C21.4816 50.1589 20.9623 49.7572 21.055 49.1183C21.1107 48.7166 21.2405 48.2785 21.5002 47.9502C22.4831 46.6723 23.4474 45.3583 24.5602 44.1898C27.6758 40.8315 31.218 37.9473 35.1683 35.5927C35.8358 35.1911 36.2437 34.2419 36.0213 33.53C35.9283 33.1468 35.6317 32.873 35.2608 32.782C34.6488 32.5992 34.0182 32.3803 33.3879 32.3074C31.83 32.216 30.2351 32.216 28.6772 32.1795C26.9896 32.1795 25.302 32.3074 23.6143 32.234C22.7241 32.1975 21.834 32.0516 20.9623 31.7598C19.4416 31.2303 18.7369 29.9708 19.0892 28.4011C19.2562 27.6527 19.4973 26.8859 19.9238 26.2289C22.2234 22.4689 25.339 19.5848 29.4559 17.723C30.5318 17.2302 31.6815 16.9381 32.9241 17.0111C35.0566 17.0659 36.3735 18.4896 36.1511 20.5887C35.8545 22.8705 35.0753 24.9694 33.7588 26.9227C33.536 27.2695 33.1838 27.5433 32.8316 27.7621C32.442 28.0179 31.9781 27.8535 31.7557 27.5068C31.5703 27.1965 31.5889 26.7764 31.9781 26.5026C32.4976 26.1559 32.776 25.6633 33.0353 25.1153C33.7402 23.7284 34.2779 22.323 34.5376 20.7895C34.5745 20.5705 34.5932 20.3149 34.5745 20.0594C34.5376 19.092 34.0555 18.6174 33.0539 18.5626C31.9968 18.5079 31.0139 18.7452 30.0497 19.165C28.5287 19.7856 27.1565 20.6982 25.8768 21.775C24.2819 23.1259 22.7798 24.6042 21.7041 26.3932C21.259 27.0867 20.9438 27.8715 20.6841 28.6564C20.4245 29.4782 20.7397 30.0622 21.6114 30.3175C22.2419 30.5003 22.891 30.6278 23.5216 30.6643C25.6543 30.6643 27.787 30.6278 29.9011 30.6098C31.6259 30.6098 33.3319 30.5733 35.0011 31.0114C35.4462 31.1024 35.8914 31.3032 36.2993 31.4856C37.1523 31.9238 37.5975 32.6721 37.7273 33.6214C37.6717 33.8222 37.6717 34.0046 37.6717 34.2238ZM25.9696 45.048C28.2878 43.3869 30.4575 41.5614 32.3677 39.4626C30.031 41.0688 27.8612 42.9123 25.9696 45.048Z" fill="#333333"/>
<path d="M58.9854 32.597C59.0773 33.0811 58.7274 33.4616 58.1381 33.5136C57.309 33.5998 56.4984 33.6343 55.6325 33.6863C53.4405 33.842 51.23 34.0148 49.0199 34.1875C48.3935 34.2395 47.7304 34.2395 46.9565 34.3086C46.9012 34.5854 46.8646 34.8448 46.7722 35.1041C46.1092 37.1271 44.7463 38.4583 42.4987 38.9424C42.3697 38.9769 42.2226 38.9769 42.0936 38.994C40.8041 39.0806 39.8831 38.216 40.012 37.0405C40.0673 36.6255 40.1963 36.176 40.399 35.7955C40.9698 34.5854 41.8171 33.5307 42.9042 32.6836C43.2174 32.4068 43.6225 32.1995 44.0095 32.0613C44.4883 31.8881 44.9305 32.0958 45.0777 32.5104C45.2433 32.8909 45.041 33.2539 44.5621 33.4961C43.0513 34.1704 42.2593 35.45 41.6514 36.8848C41.6147 36.9714 41.6147 37.0922 41.6147 37.1787C41.6147 37.2308 41.6147 37.3344 41.6514 37.5072C41.9461 37.4726 42.2226 37.5072 42.4987 37.421C43.8986 37.0405 44.783 36.1414 45.1881 34.8448C45.3171 34.4643 45.4094 34.0668 45.5384 33.6863C45.796 33.0295 46.3857 32.6836 47.0488 32.7352C48.0065 32.8563 48.9461 32.7007 49.8672 32.649C52.5932 32.4759 55.3012 32.2686 58.0273 32.0613C58.5985 32.0092 58.9117 32.182 58.9854 32.597Z" fill="#333333"/>
<path d="M80.9814 33.1632C81.0745 33.5455 80.8135 33.9103 80.3094 34.0495C78.3117 34.5879 76.3329 35.1614 74.3165 35.6654C73.8688 35.7867 73.4206 35.8214 72.9353 35.839C71.2923 35.9607 69.8547 35.4742 68.6974 34.3796C68.436 34.1361 68.175 33.8931 67.9507 33.6672C67.5025 33.2502 66.9613 33.1285 66.3824 33.3372C65.7104 33.5802 65.0384 33.7889 64.4224 34.1361C63.1715 34.8832 61.9206 35.6825 60.7074 36.5166C59.7739 37.1767 58.9152 37.9237 58.0189 38.6014C57.6644 38.8967 57.291 39.0531 56.8057 38.9837C56.2828 38.9314 55.9658 38.6013 56.0029 38.1149C56.0401 37.7848 56.1337 37.4548 56.2644 37.1244C57.0295 35.3002 58.0006 33.5108 59.1579 31.8431C59.3258 31.6344 59.4753 31.426 59.662 31.252C60.0542 30.922 60.5207 30.922 60.8569 31.2173C61.1555 31.5126 61.1743 31.8778 60.8569 32.225C59.8675 33.3372 59.2514 34.6054 58.6166 35.8737C58.579 35.926 58.5606 35.9954 58.4859 36.2384C59.3817 35.6131 60.1285 35.0396 60.8941 34.536C61.8275 33.945 62.7797 33.3372 63.7875 32.7813C64.2733 32.5207 64.8145 32.312 65.337 32.1037C66.9053 31.4432 68.2869 31.6519 69.407 32.8854C70.6951 34.3796 72.3193 34.6402 74.2234 34.1709C75.6981 33.8061 77.1356 33.3719 78.6104 32.972C79.0585 32.8507 79.5066 32.7115 79.9548 32.642C80.4401 32.5379 80.8506 32.7813 80.9814 33.1632Z" fill="#333333"/>
<path d="M101.981 33.1632C102.075 33.5455 101.813 33.9103 101.309 34.0495C99.3116 34.5879 97.3328 35.1614 95.3168 35.6654C94.8687 35.7867 94.4206 35.8214 93.9353 35.839C92.2926 35.9607 90.8551 35.4742 89.6978 34.3796C89.4363 34.1361 89.1749 33.8931 88.951 33.6672C88.5029 33.2502 87.9616 33.1285 87.3828 33.3372C86.7108 33.5802 86.0388 33.7889 85.4223 34.1361C84.1719 34.8832 82.921 35.6825 81.7073 36.5166C80.7743 37.1767 79.9152 37.9237 79.0194 38.6014C78.6648 38.8967 78.2914 39.0531 77.8057 38.9837C77.2832 38.9314 76.9658 38.6013 77.0029 38.1149C77.0405 37.7848 77.1337 37.4548 77.2644 37.1244C78.0299 35.3002 79.0006 33.5108 80.1579 31.8431C80.3262 31.6344 80.4753 31.426 80.662 31.252C81.0541 30.922 81.5207 30.922 81.8569 31.2173C82.1555 31.5126 82.1743 31.8778 81.8569 32.225C80.8674 33.3372 80.2514 34.6054 79.6166 35.8737C79.5794 35.926 79.5606 35.9954 79.4859 36.2384C80.3821 35.6131 81.1289 35.0396 81.894 34.536C82.8275 33.945 83.7797 33.3372 84.7879 32.7813C85.2732 32.5207 85.8145 32.312 86.3374 32.1037C87.9052 31.4432 89.2868 31.6519 90.407 32.8854C91.695 34.3796 93.3192 34.6402 95.2233 34.1709C96.6984 33.8061 98.1355 33.3719 99.6107 32.972C100.058 32.8507 100.507 32.7115 100.955 32.642C101.421 32.5379 101.851 32.7813 101.981 33.1632Z" fill="#333333"/>
<path d="M116.681 32.3527C116.504 32.4911 116.308 32.6295 116.113 32.728C112.449 34.289 108.746 35.8496 104.828 36.7386C103.75 36.976 102.633 37.1139 101.497 36.877C99.5182 36.4423 98.4996 34.8422 99.2438 32.9059C100.184 30.4958 101.83 28.7573 104.397 28.0857C104.926 27.9078 105.474 28.0263 105.984 28.2631C107.198 28.7768 107.57 30.0611 106.885 31.2069C106.415 31.9579 105.709 32.4712 104.906 32.8469C103.789 33.3606 102.614 33.4985 101.38 33.3801C101.203 33.3801 101.047 33.3801 100.909 33.3801C100.576 34.5064 100.811 34.9802 101.85 35.2175C102.849 35.4149 103.868 35.257 104.847 35.0201C107.296 34.447 109.667 33.558 112.018 32.6096C113.272 32.1354 114.506 31.5627 115.76 31.0095C116.191 30.8116 116.603 30.8711 116.837 31.1874C117.092 31.5427 117.053 31.9774 116.681 32.3527ZM101.869 31.6811C103.221 31.7405 104.259 31.4442 105.141 30.6932C105.376 30.4958 105.612 30.219 105.416 29.9426C105.278 29.7647 104.906 29.7647 104.671 29.7452C104.534 29.7053 104.358 29.8042 104.259 29.8437C103.358 30.1795 102.653 30.7921 101.869 31.6811Z" fill="#333333"/>
<path d="M131.609 34.2075C131.164 34.6364 130.663 35.0654 130.107 35.3692C127.68 36.7452 125.308 38.1392 122.844 39.4795C121.639 40.1227 120.361 40.7126 119.082 41.2844C118.156 41.7134 117.211 41.9991 116.155 41.9991C114.283 42.0352 113.097 40.9626 113.004 39.14C113.004 38.9791 113.004 38.8362 113.004 38.6753C112.967 38.6753 113.171 37.0489 113.394 36.2805C114.098 33.7247 115.339 31.4375 116.989 29.3464C117.211 29.0607 117.507 28.8283 117.878 28.9531C118.1 29.0069 118.397 29.2212 118.415 29.4178C118.508 29.6682 118.415 30.0077 118.286 30.222C118.063 30.6152 117.748 30.9547 117.489 31.3303C116.118 33.2067 115.172 35.2978 114.709 37.5674C114.58 38.1212 114.58 38.711 114.617 39.2829C114.709 40.1408 115.191 40.5698 116.08 40.4803C116.896 40.3908 117.767 40.1942 118.489 39.8727C120.157 39.14 121.769 38.3358 123.363 37.4779C125.216 36.4591 127.031 35.4226 128.829 34.3503C129.404 34.0109 129.941 33.5642 130.478 33.1172C131.016 32.724 131.368 32.6525 131.72 32.9563C132.128 33.2962 132.09 33.7785 131.609 34.2075ZM119.638 26.5406C119.675 26.2902 119.768 26.0402 119.935 25.8974C120.342 25.3789 120.768 24.8609 121.213 24.3605C121.621 23.9672 122.01 23.8958 122.399 24.1458C122.788 24.3962 122.844 24.7533 122.585 25.3432C122.455 25.647 121.084 27.0053 120.62 27.3629C119.99 27.47 119.583 27.0591 119.638 26.5406Z" fill="#333333"/>
<path d="M149 28.1973C148.963 28.7509 148.553 29.3813 148.144 29.5151C147.79 29.6108 147.529 29.477 147.343 29.2287C147.213 29.0949 147.157 28.904 147.046 28.7128C145.445 29.0374 143.938 29.5915 142.467 30.3171C140.16 31.5015 138.094 33.0291 136.103 34.672C133.162 37.059 130.389 39.6183 127.821 42.4453C127.635 42.6361 127.43 42.8651 127.188 42.9608C126.928 43.0182 126.611 43.0182 126.351 42.9226C126.034 42.827 125.941 42.4642 126.034 42.1395C126.128 41.7193 126.202 41.2608 126.388 40.8598C128.621 36.4672 131.059 32.2079 134.353 28.5219C134.707 28.1209 135.116 27.777 135.544 27.4717C136.028 27.1084 136.568 27.2804 136.791 27.7388C137.052 28.1973 136.847 28.8847 136.344 29.076C135.861 29.2094 135.582 29.5722 135.265 29.8972C133.609 31.7687 132.269 33.8696 130.91 35.9894C130.557 36.6198 130.184 37.2309 129.831 37.8232C129.868 37.8614 129.887 37.8806 129.924 37.9188C131.227 36.7343 132.585 35.5503 133.925 34.3662C135.842 32.7238 137.833 31.2151 139.936 29.8779C142.133 28.5026 144.478 27.5098 147.009 27.0321C147.399 26.9751 147.865 26.9939 148.293 27.0896C148.739 27.2422 149 27.7007 149 28.1973Z" fill="#333333"/>
</svg>
