<svg width="26" height="26" viewBox="0 0 26 26" fill="none" xmlns="http://www.w3.org/2000/svg">
<g clip-path="url(#clip0_16_59)">
<path d="M18.0519 6.64411L12.8665 11.8296L7.68102 6.64411C7.54349 6.50659 7.35696 6.42933 7.16247 6.42933C6.96798 6.42933 6.78145 6.50659 6.64393 6.64411V6.64411C6.5064 6.78164 6.42914 6.96817 6.42914 7.16266C6.42914 7.35715 6.5064 7.54368 6.64393 7.6812L11.8294 12.8667L6.64393 18.0521C6.5064 18.1896 6.42914 18.3762 6.42914 18.5706C6.42914 18.7651 6.5064 18.9517 6.64393 19.0892V19.0892C6.78145 19.2267 6.96798 19.304 7.16247 19.304C7.35696 19.304 7.54349 19.2267 7.68102 19.0892L12.8665 13.9037L18.0519 19.0892C18.1894 19.2267 18.376 19.304 18.5705 19.304C18.765 19.304 18.9515 19.2267 19.089 19.0892C19.2265 18.9517 19.3038 18.7651 19.3038 18.5706C19.3038 18.3762 19.2265 18.1896 19.089 18.0521L13.9036 12.8667L19.089 7.6812C19.2265 7.54368 19.3038 7.35715 19.3038 7.16266C19.3038 6.96817 19.2265 6.78164 19.089 6.64411C18.9515 6.50659 18.765 6.42932 18.5705 6.42933C18.376 6.42932 18.1894 6.50659 18.0519 6.64411Z" fill="black"/>
</g>
<defs>
<clipPath id="clip0_16_59">
<rect width="17.6" height="17.6" fill="white" transform="translate(0.421387 12.8667) rotate(-45)"/>
</clipPath>
</defs>
</svg>
