<svg width="30" height="30" viewBox="0 0 30 30" fill="none" xmlns="http://www.w3.org/2000/svg">
<g clip-path="url(#clip0_118_96)">
<path d="M28.7499 15.0001C28.4444 14.9965 28.1485 15.107 27.9201 15.31C27.6918 15.5129 27.5473 15.7938 27.5149 16.0976C27.3091 18.4777 26.4246 20.7487 24.9665 22.641C23.5084 24.5334 21.5378 25.9676 19.2888 26.7733C17.0399 27.579 14.6069 27.7224 12.2788 27.1866C9.95073 26.6507 7.82532 25.458 6.15493 23.7501H9.58618C9.9177 23.7501 10.2356 23.6184 10.4701 23.384C10.7045 23.1495 10.8362 22.8316 10.8362 22.5001C10.8362 22.1686 10.7045 21.8506 10.4701 21.6162C10.2356 21.3818 9.9177 21.2501 9.58618 21.2501H4.58618C3.92314 21.2501 3.28726 21.5135 2.81841 21.9823C2.34957 22.4512 2.08618 23.087 2.08618 23.7501V28.7501C2.08618 29.0816 2.21788 29.3995 2.4523 29.634C2.68672 29.8684 3.00466 30.0001 3.33618 30.0001C3.6677 30.0001 3.98564 29.8684 4.22007 29.634C4.45449 29.3995 4.58618 29.0816 4.58618 28.7501V25.7026C6.60774 27.6926 9.15307 29.0674 11.9257 29.6667C14.6984 30.2661 17.5843 30.0653 20.2473 29.088C22.9103 28.1106 25.2408 26.3967 26.9674 24.146C28.6941 21.8953 29.7457 19.2004 29.9999 16.3751C30.0161 16.201 29.9958 16.0255 29.9404 15.8597C29.8849 15.6939 29.7956 15.5415 29.678 15.4121C29.5604 15.2827 29.4171 15.1793 29.2573 15.1084C29.0976 15.0374 28.9247 15.0006 28.7499 15.0001Z" fill="#D1D1BD"/>
<path d="M26.6638 0.000205395C26.3322 0.000205395 26.0143 0.131901 25.7799 0.366322C25.5455 0.600742 25.4138 0.918685 25.4138 1.25021V4.29771C23.3922 2.30768 20.8469 0.932939 18.0742 0.333589C15.3015 -0.265761 12.4157 -0.0650532 9.75265 0.912338C7.08965 1.88973 4.75912 3.60358 3.0325 5.85428C1.30588 8.10499 0.254221 10.7999 8.98493e-06 13.6252C-0.0161368 13.7993 0.0041537 13.9748 0.0595876 14.1406C0.115022 14.3064 0.204383 14.4588 0.321979 14.5882C0.439575 14.7175 0.582827 14.821 0.742607 14.8919C0.902386 14.9629 1.07519 14.9997 1.25001 15.0002C1.55553 15.0038 1.8514 14.8933 2.07979 14.6903C2.30818 14.4874 2.45267 14.2065 2.48501 13.9027C2.69083 11.5226 3.57531 9.2516 5.03345 7.35925C6.49158 5.46691 8.46212 4.03274 10.7111 3.22701C12.9601 2.42128 15.3931 2.27784 17.7211 2.81373C20.0492 3.34961 22.1746 4.5423 23.845 6.25021H20.4138C20.0822 6.25021 19.7643 6.3819 19.5299 6.61632C19.2955 6.85074 19.1638 7.16868 19.1638 7.50021C19.1638 7.83173 19.2955 8.14967 19.5299 8.38409C19.7643 8.61851 20.0822 8.75021 20.4138 8.75021H25.4138C26.0768 8.75021 26.7127 8.48681 27.1815 8.01797C27.6504 7.54913 27.9138 6.91325 27.9138 6.25021V1.25021C27.9138 0.918685 27.7821 0.600742 27.5476 0.366322C27.3132 0.131901 26.9953 0.000205395 26.6638 0.000205395Z" fill="#D1D1BD"/>
</g>
<defs>
<clipPath id="clip0_118_96">
<rect width="30" height="30" fill="white"/>
</clipPath>
</defs>
</svg>
