<svg width="26" height="30" viewBox="0 0 26 30" fill="none" xmlns="http://www.w3.org/2000/svg">
<path d="M19.25 17.5C19.25 17.8315 19.1183 18.1495 18.8839 18.3839C18.6495 18.6183 18.3315 18.75 18 18.75H8C7.66848 18.75 7.35054 18.6183 7.11612 18.3839C6.8817 18.1495 6.75 17.8315 6.75 17.5C6.75 17.1685 6.8817 16.8506 7.11612 16.6161C7.35054 16.3817 7.66848 16.25 8 16.25H18C18.3315 16.25 18.6495 16.3817 18.8839 16.6161C19.1183 16.8506 19.25 17.1685 19.25 17.5ZM14.25 21.25H8C7.66848 21.25 7.35054 21.3817 7.11612 21.6161C6.8817 21.8506 6.75 22.1685 6.75 22.5C6.75 22.8315 6.8817 23.1495 7.11612 23.3839C7.35054 23.6183 7.66848 23.75 8 23.75H14.25C14.5815 23.75 14.8995 23.6183 15.1339 23.3839C15.3683 23.1495 15.5 22.8315 15.5 22.5C15.5 22.1685 15.3683 21.8506 15.1339 21.6161C14.8995 21.3817 14.5815 21.25 14.25 21.25ZM25.5 13.1063V23.75C25.498 25.407 24.8389 26.9956 23.6672 28.1673C22.4956 29.3389 20.907 29.998 19.25 30H6.75C5.09301 29.998 3.50445 29.3389 2.33277 28.1673C1.1611 26.9956 0.501985 25.407 0.5 23.75V6.25003C0.501985 4.59303 1.1611 3.00448 2.33277 1.8328C3.50445 0.661131 5.09301 0.00201363 6.75 2.88108e-05H12.3938C13.5433 -0.00292985 14.682 0.222013 15.744 0.661853C16.8061 1.10169 17.7704 1.7477 18.5812 2.56253L22.9362 6.92003C23.7515 7.73033 24.398 8.69435 24.838 9.75625C25.2781 10.8181 25.5031 11.9568 25.5 13.1063ZM16.8137 4.33003C16.4204 3.94898 15.9787 3.62118 15.5 3.35503V8.75003C15.5 9.08155 15.6317 9.39949 15.8661 9.63391C16.1005 9.86833 16.4185 10 16.75 10H22.145C21.8787 9.52152 21.5504 9.08021 21.1688 8.68753L16.8137 4.33003ZM23 13.1063C23 12.9 22.96 12.7025 22.9412 12.5H16.75C15.7554 12.5 14.8016 12.1049 14.0983 11.4017C13.3951 10.6984 13 9.74459 13 8.75003V2.55878C12.7975 2.54003 12.5988 2.50003 12.3938 2.50003H6.75C5.75544 2.50003 4.80161 2.89512 4.09835 3.59838C3.39509 4.30164 3 5.25547 3 6.25003V23.75C3 24.7446 3.39509 25.6984 4.09835 26.4017C4.80161 27.1049 5.75544 27.5 6.75 27.5H19.25C20.2446 27.5 21.1984 27.1049 21.9017 26.4017C22.6049 25.6984 23 24.7446 23 23.75V13.1063Z" fill="#D1D1BD"/>
</svg>
